<svg width="131" height="23" fill="none" xmlns="http://www.w3.org/2000/svg"><path d="M1.28 19a.585.585 0 01-.432-.168.585.585 0 01-.168-.432V2.8c0-.176.056-.32.168-.432A.585.585 0 011.28 2.2H8c1.328 0 2.48.208 3.456.624.992.4 1.76 1.008 2.304 1.824.56.816.84 1.848.84 3.096 0 1.232-.28 2.248-.84 3.048-.544.8-1.312 1.392-2.304 1.776-.976.384-2.128.576-3.456.576H5.144V18.4c0 .176-.064.32-.192.432A.585.585 0 014.52 19H1.28zm3.792-9.168H7.88c.688 0 1.232-.176 1.632-.528.416-.352.624-.888.624-1.608 0-.608-.176-1.12-.528-1.536-.352-.416-.928-.624-1.728-.624H5.072v4.296zM17.499 19a.585.585 0 01-.432-.168.585.585 0 01-.168-.432V2.8c0-.176.056-.32.168-.432a.585.585 0 01.432-.168h6.528c2.064 0 3.688.48 4.872 1.44 1.2.944 1.8 2.288 1.8 4.032 0 1.136-.28 2.096-.84 2.88a5.108 5.108 0 01-2.16 1.776l3.312 5.904a.597.597 0 01.072.264.505.505 0 01-.168.36.488.488 0 01-.36.144h-3.168c-.304 0-.528-.072-.672-.216a2.04 2.04 0 01-.312-.432l-2.736-5.28h-2.472V18.4c0 .176-.056.32-.168.432a.585.585 0 01-.432.168h-3.096zm3.696-9.312h2.784c.752 0 1.312-.184 1.68-.552.384-.368.576-.872.576-1.512 0-.624-.184-1.128-.552-1.512-.352-.384-.92-.576-1.704-.576h-2.784v4.152zm19.091 9.552c-1.472 0-2.752-.24-3.84-.72s-1.936-1.2-2.544-2.16c-.608-.976-.944-2.192-1.008-3.648a88.773 88.773 0 010-4.152c.064-1.44.4-2.648 1.008-3.624a5.812 5.812 0 012.568-2.232c1.088-.496 2.36-.744 3.816-.744 1.44 0 2.704.248 3.792.744 1.104.496 1.968 1.24 2.592 2.232.624.976.96 2.184 1.008 3.624a45.983 45.983 0 010 4.152c-.064 1.456-.4 2.672-1.008 3.648-.608.96-1.456 1.68-2.544 2.16-1.088.48-2.368.72-3.84.72zm0-3.456c.848 0 1.536-.256 2.064-.768.544-.512.832-1.328.864-2.448a40.909 40.909 0 000-3.936c-.032-.752-.176-1.36-.432-1.824-.24-.48-.576-.832-1.008-1.056-.432-.224-.928-.336-1.488-.336-.544 0-1.032.112-1.464.336-.432.224-.776.576-1.032 1.056-.256.464-.4 1.072-.432 1.824a81.753 81.753 0 000 3.936c.048 1.12.336 1.936.864 2.448s1.216.768 2.064.768zm17.518 7.008c-.944 0-1.808-.144-2.592-.432a5.787 5.787 0 01-2.064-1.296c-.576-.576-1.024-1.296-1.344-2.16-.304-.864-.456-1.88-.456-3.048 0-.656-.112-1.216-.336-1.68a2.177 2.177 0 00-.984-1.056l-.312-.12c-.432-.24-.648-.568-.648-.984v-.864c0-.416.216-.744.648-.984l.312-.12c.464-.24.8-.592 1.008-1.056.208-.464.312-1.024.312-1.68 0-1.168.152-2.176.456-3.024.32-.864.768-1.584 1.344-2.16a5.557 5.557 0 012.04-1.296 7.789 7.789 0 012.568-.456h.168c.144 0 .264.056.36.168a.455.455 0 01.168.36v2.184a.488.488 0 01-.144.36.564.564 0 01-.336.168h-.096c-.672.048-1.216.216-1.632.504-.416.272-.72.696-.912 1.272-.192.576-.288 1.336-.288 2.28 0 1.008-.168 1.856-.504 2.544-.336.672-.76 1.128-1.272 1.368.336.144.632.408.888.792.272.384.488.848.648 1.392.16.528.24 1.104.24 1.728 0 .928.096 1.688.288 2.28.192.576.496 1 .912 1.272.416.272.952.44 1.608.504l.12.024a.46.46 0 01.336.144.519.519 0 01.144.384v2.16a.48.48 0 01-.168.384.488.488 0 01-.36.144h-.12zM60.92 19a.585.585 0 01-.432-.168.585.585 0 01-.168-.432v-3.048c0-.16.056-.296.168-.408a.548.548 0 01.432-.192h3.024c.176 0 .32.064.432.192a.523.523 0 01.192.408V18.4c0 .176-.064.32-.192.432a.585.585 0 01-.432.168H60.92zm6.82 0a.585.585 0 01-.431-.168.585.585 0 01-.168-.432v-3.048c0-.16.056-.296.168-.408a.548.548 0 01.432-.192h3.024c.176 0 .32.064.432.192a.523.523 0 01.192.408V18.4c0 .176-.064.32-.192.432a.585.585 0 01-.432.168H67.74zm6.821 0a.585.585 0 01-.432-.168.585.585 0 01-.168-.432v-3.048c0-.16.056-.296.168-.408a.548.548 0 01.432-.192h3.024c.176 0 .32.064.432.192a.523.523 0 01.192.408V18.4c0 .176-.064.32-.192.432a.585.585 0 01-.432.168H74.56zM80.732.376c.944.016 1.8.168 2.568.456.784.288 1.464.72 2.04 1.296.592.56 1.048 1.28 1.368 2.16.32.864.48 1.872.48 3.024 0 .672.104 1.24.312 1.704.208.448.536.792.984 1.032l.312.144c.432.224.648.544.648.96v.888c0 .416-.216.736-.648.96l-.312.144c-.464.224-.8.568-1.008 1.032-.192.464-.288 1.024-.288 1.68 0 1.168-.16 2.184-.48 3.048-.32.864-.768 1.576-1.344 2.136a5.557 5.557 0 01-2.04 1.296c-.784.304-1.64.456-2.568.456h-.144a.519.519 0 01-.384-.144.519.519 0 01-.144-.384v-2.16c0-.16.048-.288.144-.384a.46.46 0 01.336-.144h.072c.672-.064 1.216-.24 1.632-.528.432-.272.744-.696.936-1.272.192-.576.288-1.328.288-2.256 0-1.024.16-1.872.48-2.544.336-.688.76-1.152 1.272-1.392-.336-.16-.64-.424-.912-.792a5.14 5.14 0 01-.624-1.368 6.651 6.651 0 01-.216-1.752c0-.944-.096-1.696-.288-2.256-.192-.576-.496-1.008-.912-1.296-.416-.288-.952-.456-1.608-.504h-.12a.564.564 0 01-.336-.168.488.488 0 01-.144-.36V.904c0-.144.048-.264.144-.36a.48.48 0 01.384-.168h.12zM95.656 19a.585.585 0 01-.432-.168.585.585 0 01-.168-.432V5.968h-4.272a.585.585 0 01-.432-.168.639.639 0 01-.168-.432V2.8c0-.176.056-.32.168-.432a.585.585 0 01.432-.168h12.912c.176 0 .32.056.432.168a.585.585 0 01.168.432v2.568c0 .16-.056.304-.168.432a.585.585 0 01-.432.168h-4.272V18.4c0 .176-.056.32-.168.432a.585.585 0 01-.432.168h-3.168zm14.208.24c-1.888 0-3.392-.512-4.512-1.536-1.12-1.024-1.704-2.544-1.752-4.56v-.84c.048-1.264.328-2.344.84-3.24A5.16 5.16 0 01106.6 7c.928-.48 2.008-.72 3.24-.72 1.408 0 2.568.28 3.48.84a5.318 5.318 0 012.088 2.28c.464.96.696 2.056.696 3.288v.576c0 .176-.064.32-.193.432a.552.552 0 01-.407.168h-7.68v.168c.016.464.096.888.24 1.272s.368.688.672.912c.304.224.672.336 1.104.336.32 0 .584-.048.792-.144.224-.112.408-.232.552-.36.144-.144.256-.264.336-.36.144-.16.256-.256.336-.288.096-.048.24-.072.432-.072h2.976c.16 0 .288.048.384.144.112.08.16.2.144.36-.016.272-.152.6-.408.984s-.632.768-1.128 1.152c-.48.368-1.088.672-1.824.912s-1.592.36-2.568.36zm-2.04-7.752h4.056v-.048c0-.512-.08-.96-.24-1.344a1.763 1.763 0 00-.696-.888c-.304-.208-.672-.312-1.104-.312-.432 0-.8.104-1.104.312-.288.208-.512.504-.672.888-.16.384-.24.832-.24 1.344v.048zM117.428 19a.573.573 0 01-.384-.144.573.573 0 01-.12-.552.528.528 0 01.096-.216l4.008-5.496-3.648-5.16a1.261 1.261 0 01-.12-.192.789.789 0 01-.024-.192c0-.144.056-.264.168-.36a.529.529 0 01.384-.168h2.928c.208 0 .36.048.456.144.112.096.192.184.24.264l2.232 3.096 2.208-3.072c.064-.08.144-.168.24-.264.112-.112.272-.168.48-.168h2.808c.144 0 .264.056.36.168a.455.455 0 01.168.36.789.789 0 01-.024.192.54.54 0 01-.096.192l-3.744 5.16 4.056 5.496a.425.425 0 01.12.192.789.789 0 01.024.192.529.529 0 01-.552.528h-3.048c-.192 0-.336-.04-.432-.12a3.272 3.272 0 01-.24-.264l-2.424-3.288-2.448 3.288-.24.24c-.096.096-.248.144-.456.144h-2.976z" fill="#8ACD7F"/></svg>